<svg width="25" height="24" viewBox="0 0 25 24" fill="none" xmlns="http://www.w3.org/2000/svg">
<path d="M16.2098 8.28983C16.1169 8.19611 16.0063 8.12171 15.8844 8.07094C15.7626 8.02017 15.6318 7.99404 15.4998 7.99404C15.3678 7.99404 15.2371 8.02017 15.1153 8.07094C14.9934 8.12171 14.8828 8.19611 14.7898 8.28983L12.4998 10.5898L10.2098 8.28983C10.0215 8.10153 9.76614 7.99574 9.49984 7.99574C9.23353 7.99574 8.97814 8.10153 8.78983 8.28983C8.60153 8.47814 8.49574 8.73353 8.49574 8.99984C8.49574 9.26614 8.60153 9.52153 8.78983 9.70984L11.0898 11.9998L8.78983 14.2898C8.69611 14.3828 8.62171 14.4934 8.57094 14.6153C8.52017 14.7371 8.49404 14.8678 8.49404 14.9998C8.49404 15.1318 8.52017 15.2626 8.57094 15.3844C8.62171 15.5063 8.69611 15.6169 8.78983 15.7098C8.8828 15.8036 8.9934 15.878 9.11526 15.9287C9.23712 15.9795 9.36782 16.0056 9.49984 16.0056C9.63185 16.0056 9.76255 15.9795 9.88441 15.9287C10.0063 15.878 10.1169 15.8036 10.2098 15.7098L12.4998 13.4098L14.7898 15.7098C14.8828 15.8036 14.9934 15.878 15.1153 15.9287C15.2371 15.9795 15.3678 16.0056 15.4998 16.0056C15.6318 16.0056 15.7626 15.9795 15.8844 15.9287C16.0063 15.878 16.1169 15.8036 16.2098 15.7098C16.3036 15.6169 16.378 15.5063 16.4287 15.3844C16.4795 15.2626 16.5056 15.1318 16.5056 14.9998C16.5056 14.8678 16.4795 14.7371 16.4287 14.6153C16.378 14.4934 16.3036 14.3828 16.2098 14.2898L13.9098 11.9998L16.2098 9.70984C16.3036 9.61687 16.378 9.50627 16.4287 9.38441C16.4795 9.26255 16.5056 9.13185 16.5056 8.99984C16.5056 8.86782 16.4795 8.73712 16.4287 8.61526C16.378 8.4934 16.3036 8.3828 16.2098 8.28983ZM19.5698 4.92984C18.6474 3.97473 17.5439 3.21291 16.3239 2.68882C15.1038 2.16473 13.7916 1.88887 12.4638 1.87733C11.1361 1.86579 9.81926 2.11881 8.59029 2.62162C7.36133 3.12443 6.24481 3.86696 5.30589 4.80589C4.36696 5.74481 3.62443 6.86133 3.12162 8.09029C2.61881 9.31926 2.36579 10.6361 2.37733 11.9638C2.38887 13.2916 2.66473 14.6038 3.18882 15.8239C3.71291 17.0439 4.47473 18.1474 5.42984 19.0698C6.3523 20.0249 7.45575 20.7868 8.67579 21.3109C9.89583 21.8349 11.208 22.1108 12.5358 22.1223C13.8636 22.1339 15.1804 21.8809 16.4094 21.3781C17.6383 20.8752 18.7549 20.1327 19.6938 19.1938C20.6327 18.2549 21.3752 17.1383 21.8781 15.9094C22.3809 14.6804 22.6339 13.3636 22.6223 12.0358C22.6108 10.708 22.3349 9.39583 21.8109 8.17579C21.2868 6.95575 20.5249 5.8523 19.5698 4.92984ZM18.1598 17.6598C16.8519 18.9692 15.1304 19.7847 13.2886 19.9671C11.4469 20.1496 9.59884 19.6879 8.05936 18.6606C6.51987 17.6333 5.38419 16.104 4.84581 14.3333C4.30742 12.5626 4.39964 10.66 5.10675 8.94962C5.81386 7.23926 7.09211 5.82698 8.72373 4.9534C10.3553 4.07981 12.2394 3.79897 14.0548 4.15871C15.8703 4.51845 17.5049 5.49653 18.6801 6.9263C19.8553 8.35607 20.4984 10.1491 20.4998 11.9998C20.5034 13.0511 20.2984 14.0927 19.8968 15.0642C19.4951 16.0358 18.9047 16.918 18.1598 17.6598Z" fill="#0D0039"/>
</svg>
