<svg width="114" height="114" viewBox="0 0 114 114" fill="none" xmlns="http://www.w3.org/2000/svg">
<circle cx="57" cy="57" r="57" fill="#07634C"/>
<path d="M56.893 5.48633C28.5454 5.48633 5.48633 28.5485 5.48633 56.8961C5.48633 60.4807 5.85515 63.983 6.55622 67.3633L11.738 65.2662C11.2351 62.5503 10.973 59.7552 10.973 56.8961C10.973 31.5753 31.5722 10.973 56.893 10.973C82.2138 10.973 102.813 31.5753 102.813 56.8961C102.813 74.0784 93.3273 89.0843 79.3211 96.9576L79.0712 103.27C96.3449 94.9733 108.3 77.3033 108.3 56.8961C108.3 28.5485 85.2376 5.48633 56.893 5.48633ZM68.1619 101.417C66.3575 101.874 64.5103 102.225 62.6296 102.459C60.7519 102.694 58.8347 102.816 56.893 102.816C40.2594 102.816 25.6649 93.9278 17.6057 80.6501C16.6547 79.0834 15.7951 77.4557 15.0331 75.7701C14.2802 74.1119 13.6279 72.4019 13.0731 70.6462L7.9736 72.7128C8.54055 74.4624 9.19895 76.1694 9.94574 77.8306C10.6956 79.5162 11.5369 81.15 12.4635 82.732C21.3823 98.0123 37.958 108.303 56.893 108.303C58.7554 108.303 60.5965 108.202 62.4101 108.007C64.2847 107.809 66.1288 107.507 67.9394 107.108C69.8323 106.693 71.6825 106.172 73.4901 105.556L73.7217 99.6247C71.9203 100.335 70.064 100.935 68.1619 101.417Z" fill="#FFFBF6"/>
<path d="M48.8613 35.5928L49.0656 35.9494H48.8613V35.5928Z" fill="#FFFBF6"/>
<path d="M93.4125 45.3042L90.1937 66.7722C90.0626 67.644 89.5201 68.3999 88.7367 68.8053L74.6513 76.0629L73.7216 99.6249L73.49 105.557C71.6824 106.172 69.8322 106.694 67.9393 107.108L68.1618 101.417L69.2317 74.2492C69.2713 73.2617 69.8383 72.3716 70.7162 71.9174L84.9753 64.5714L87.6302 46.8649L77.5348 43.9539C76.9526 43.7863 76.4436 43.4296 76.087 42.9419L70.9448 35.9495H55.2408C54.872 35.1235 54.4574 34.3157 54.0033 33.5263L52.2354 30.4629H72.3317C73.2034 30.4629 74.0264 30.8805 74.5416 31.5816L79.952 38.9397L91.4617 42.2591C92.7816 42.6402 93.6167 43.9417 93.4125 45.3042Z" fill="#FFFBF6"/>
<path d="M68.6358 45.2067L61.2958 45.6274C60.7915 45.6563 60.4062 46.0884 60.4351 46.5926L60.5448 48.5068C60.5737 49.011 61.0059 49.3963 61.5101 49.3674L68.8501 48.9467C69.3543 48.9178 69.7397 48.4857 69.7108 47.9815L69.6011 46.0673C69.5722 45.5631 69.14 45.1778 68.6358 45.2067Z" fill="#FFFBF6"/>
<path d="M80.5004 44.9051L79.9792 49.3493C79.7689 51.1324 80.8997 52.8028 82.6372 53.2661L88.5993 54.8664L90.9372 43.9206L82.756 43.0945C81.6374 42.9817 80.6315 43.7865 80.5004 44.9051Z" fill="#FFFBF6"/>
<path d="M60.5601 66.1102C57.2711 61.9861 51.0621 61.4679 46.688 64.9519C43.2132 67.7227 41.9482 72.1882 43.2254 75.974C39.0007 73.7214 35.9373 69.893 34.523 67.8782L37.6473 66.6132C39.1683 65.9975 40.4881 65.336 41.683 64.5923C48.1024 60.6023 51.7845 54.5609 52.0527 47.5776C52.132 45.4988 51.9034 43.4291 51.3791 41.4356C50.9036 39.6372 50.1903 37.8998 49.2485 36.2691L49.0625 35.949L48.8583 35.5924L46.2948 31.1543L43.3717 32.843L21.8031 45.2946C19.011 46.907 18.0509 50.4886 19.6633 53.2807L26.5399 65.1897L13.0702 70.6459L7.9707 72.7125C8.53766 74.4621 9.19605 76.1691 9.94284 77.8303L15.0302 75.7698L29.335 69.9783C31.2706 73.0112 38.1777 82.5366 48.8034 83.2072C49.1143 83.2255 49.4161 83.2377 49.7118 83.2377C52.7538 83.2377 55.1131 82.247 56.8383 81.0826C57.0639 80.9302 57.2955 80.7839 57.5272 80.6407C57.893 80.4151 58.2496 80.1682 58.594 79.8908C62.965 76.4038 63.8429 70.2344 60.554 66.1102H60.5601Z" fill="#FFFBF6"/>
</svg>
