<svg width="970" height="300" viewBox="0 0 970 300" fill="none" xmlns="http://www.w3.org/2000/svg">
<path d="M305.276 297H231.741V191.971H252.762V275.979H305.276V297ZM337.283 297H316.263V191.971H337.283V297ZM440.701 286.233C435.818 290.433 430.35 293.655 424.295 295.901C418.24 298.147 411.966 299.271 405.472 299.271C400.491 299.271 395.682 298.611 391.043 297.293C386.453 296.023 382.132 294.217 378.079 291.873C374.075 289.48 370.413 286.624 367.093 283.304C363.772 279.983 360.916 276.321 358.523 272.317C356.18 268.265 354.349 263.943 353.03 259.354C351.761 254.715 351.126 249.905 351.126 244.925C351.126 239.944 351.761 235.135 353.03 230.496C354.349 225.857 356.18 221.536 358.523 217.532C360.916 213.479 363.772 209.793 367.093 206.473C370.413 203.152 374.075 200.32 378.079 197.977C382.132 195.584 386.453 193.753 391.043 192.483C395.682 191.165 400.491 190.506 405.472 190.506C411.966 190.506 418.24 191.629 424.295 193.875C430.35 196.072 435.818 199.295 440.701 203.543L429.568 221.854C426.492 218.533 422.854 215.994 418.655 214.236C414.456 212.43 410.062 211.526 405.472 211.526C400.833 211.526 396.487 212.405 392.435 214.163C388.382 215.921 384.842 218.313 381.814 221.341C378.787 224.319 376.395 227.859 374.637 231.961C372.879 236.014 372 240.335 372 244.925C372 249.515 372.879 253.836 374.637 257.889C376.395 261.893 378.787 265.408 381.814 268.436C384.842 271.463 388.382 273.855 392.435 275.613C396.487 277.371 400.833 278.25 405.472 278.25C410.062 278.25 414.456 277.371 418.655 275.613C422.854 273.807 426.492 271.243 429.568 267.923L440.701 286.233ZM524.93 297H452.933V191.971H524.93V212.991H473.953V234.012H508.45V255.032H473.953V275.979H524.93V297ZM623.66 297H601.175L560.672 227.859V297H539.651V191.971H562.137L602.64 261.185V191.971H623.66V297ZM637.063 223.465C637.063 219.119 637.894 215.042 639.554 211.233C641.214 207.425 643.46 204.104 646.292 201.272C649.173 198.392 652.518 196.121 656.326 194.461C660.135 192.801 664.212 191.971 668.558 191.971H716.751V212.991H668.558C667.093 212.991 665.726 213.26 664.456 213.797C663.187 214.334 662.063 215.091 661.087 216.067C660.159 216.995 659.427 218.094 658.89 219.363C658.353 220.633 658.084 222 658.084 223.465C658.084 224.93 658.353 226.321 658.89 227.64C659.427 228.909 660.159 230.032 661.087 231.009C662.063 231.937 663.187 232.669 664.456 233.206C665.726 233.743 667.093 234.012 668.558 234.012H689.578C693.924 234.012 698.001 234.842 701.81 236.502C705.667 238.113 709.012 240.359 711.844 243.24C714.725 246.072 716.971 249.417 718.582 253.274C720.242 257.083 721.072 261.16 721.072 265.506C721.072 269.852 720.242 273.929 718.582 277.737C716.971 281.546 714.725 284.891 711.844 287.771C709.012 290.604 705.667 292.85 701.81 294.51C698.001 296.17 693.924 297 689.578 297H642.923V275.979H689.578C691.043 275.979 692.41 275.711 693.68 275.174C694.949 274.637 696.048 273.904 696.976 272.977C697.952 272 698.709 270.877 699.246 269.607C699.783 268.338 700.052 266.971 700.052 265.506C700.052 264.041 699.783 262.674 699.246 261.404C698.709 260.135 697.952 259.036 696.976 258.108C696.048 257.132 694.949 256.375 693.68 255.838C692.41 255.301 691.043 255.032 689.578 255.032H668.558C664.212 255.032 660.135 254.202 656.326 252.542C652.518 250.882 649.173 248.636 646.292 245.804C643.46 242.923 641.214 239.578 639.554 235.77C637.894 231.912 637.063 227.811 637.063 223.465ZM755.936 297H734.915V191.971H755.936V297ZM859.5 297H837.015L796.512 227.859V297H775.491V191.971H797.977L838.479 261.185V191.971H859.5V297ZM962.625 286.38C957.742 290.53 952.298 293.729 946.292 295.975C940.286 298.172 934.036 299.271 927.542 299.271C922.562 299.271 917.752 298.611 913.113 297.293C908.523 296.023 904.227 294.217 900.223 291.873C896.219 289.48 892.557 286.648 889.236 283.377C885.916 280.057 883.084 276.395 880.74 272.391C878.396 268.338 876.565 263.992 875.247 259.354C873.978 254.715 873.343 249.905 873.343 244.925C873.343 239.944 873.978 235.159 875.247 230.569C876.565 225.979 878.396 221.683 880.74 217.679C883.084 213.626 885.916 209.964 889.236 206.692C892.557 203.372 896.219 200.54 900.223 198.196C904.227 195.853 908.523 194.046 913.113 192.776C917.752 191.458 922.562 190.799 927.542 190.799C934.036 190.799 940.286 191.922 946.292 194.168C952.298 196.365 957.742 199.539 962.625 203.689L951.639 222C948.465 218.777 944.803 216.263 940.652 214.456C936.502 212.601 932.132 211.673 927.542 211.673C922.952 211.673 918.631 212.552 914.578 214.31C910.574 216.067 907.059 218.46 904.031 221.487C901.004 224.466 898.611 227.981 896.854 232.034C895.096 236.038 894.217 240.335 894.217 244.925C894.217 249.563 895.096 253.909 896.854 257.962C898.611 262.015 901.004 265.555 904.031 268.582C907.059 271.609 910.574 274.002 914.578 275.76C918.631 277.518 922.952 278.396 927.542 278.396C930.179 278.396 932.742 278.079 935.232 277.444C937.723 276.81 940.091 275.931 942.337 274.808V244.925H962.625V286.38Z" fill="#F6F8DE"/>
<path d="M93.3105 137.38C88.4277 141.53 82.9834 144.729 76.9775 146.975C70.9717 149.172 64.7217 150.271 58.2275 150.271C53.2471 150.271 48.4375 149.611 43.7988 148.293C39.209 147.023 34.9121 145.217 30.9082 142.873C26.9043 140.48 23.2422 137.648 19.9219 134.377C16.6016 131.057 13.7695 127.395 11.4258 123.391C9.08203 119.338 7.25098 114.992 5.93262 110.354C4.66309 105.715 4.02832 100.905 4.02832 95.9248C4.02832 90.9443 4.66309 86.1592 5.93262 81.5693C7.25098 76.9795 9.08203 72.6826 11.4258 68.6787C13.7695 64.626 16.6016 60.9639 19.9219 57.6924C23.2422 54.3721 26.9043 51.54 30.9082 49.1963C34.9121 46.8525 39.209 45.0459 43.7988 43.7764C48.4375 42.458 53.2471 41.7988 58.2275 41.7988C64.7217 41.7988 70.9717 42.9219 76.9775 45.168C82.9834 47.3652 88.4277 50.5391 93.3105 54.6895L82.3242 73C79.1504 69.7773 75.4883 67.2627 71.3379 65.4561C67.1875 63.6006 62.8174 62.6729 58.2275 62.6729C53.6377 62.6729 49.3164 63.5518 45.2637 65.3096C41.2598 67.0674 37.7441 69.46 34.7168 72.4873C31.6895 75.4658 29.2969 78.9814 27.5391 83.0342C25.7812 87.0381 24.9023 91.335 24.9023 95.9248C24.9023 100.563 25.7812 104.909 27.5391 108.962C29.2969 113.015 31.6895 116.555 34.7168 119.582C37.7441 122.609 41.2598 125.002 45.2637 126.76C49.3164 128.518 53.6377 129.396 58.2275 129.396C60.8643 129.396 63.4277 129.079 65.918 128.444C68.4082 127.81 70.7764 126.931 73.0225 125.808V95.9248H93.3105V137.38ZM212.402 95.9248C212.402 100.905 211.743 105.715 210.425 110.354C209.155 114.943 207.349 119.265 205.005 123.317C202.661 127.321 199.829 130.983 196.509 134.304C193.188 137.624 189.526 140.48 185.522 142.873C181.519 145.217 177.197 147.023 172.559 148.293C167.92 149.611 163.11 150.271 158.13 150.271C153.149 150.271 148.34 149.611 143.701 148.293C139.111 147.023 134.79 145.217 130.737 142.873C126.733 140.48 123.071 137.624 119.751 134.304C116.431 130.983 113.574 127.321 111.182 123.317C108.838 119.265 107.007 114.943 105.688 110.354C104.419 105.715 103.784 100.905 103.784 95.9248C103.784 90.9443 104.419 86.1348 105.688 81.4961C107.007 76.8574 108.838 72.5361 111.182 68.5322C113.574 64.5283 116.431 60.8662 119.751 57.5459C123.071 54.2256 126.733 51.3936 130.737 49.0498C134.79 46.7061 139.111 44.8994 143.701 43.6299C148.34 42.3115 153.149 41.6523 158.13 41.6523C163.11 41.6523 167.92 42.3115 172.559 43.6299C177.197 44.8994 181.519 46.7061 185.522 49.0498C189.526 51.3936 193.188 54.2256 196.509 57.5459C199.829 60.8662 202.661 64.5283 205.005 68.5322C207.349 72.5361 209.155 76.8574 210.425 81.4961C211.743 86.1348 212.402 90.9443 212.402 95.9248ZM191.528 95.9248C191.528 91.335 190.649 87.0137 188.892 82.9609C187.134 78.8594 184.741 75.3193 181.714 72.3408C178.735 69.3135 175.195 66.9209 171.094 65.1631C167.041 63.4053 162.72 62.5264 158.13 62.5264C153.491 62.5264 149.146 63.4053 145.093 65.1631C141.04 66.9209 137.5 69.3135 134.473 72.3408C131.445 75.3193 129.053 78.8594 127.295 82.9609C125.537 87.0137 124.658 91.335 124.658 95.9248C124.658 100.515 125.537 104.836 127.295 108.889C129.053 112.893 131.445 116.408 134.473 119.436C137.5 122.463 141.04 124.855 145.093 126.613C149.146 128.371 153.491 129.25 158.13 129.25C162.72 129.25 167.041 128.371 171.094 126.613C175.195 124.855 178.735 122.463 181.714 119.436C184.741 116.408 187.134 112.893 188.892 108.889C190.649 104.836 191.528 100.515 191.528 95.9248ZM329.15 95.9248C329.15 100.905 328.491 105.715 327.173 110.354C325.903 114.943 324.097 119.265 321.753 123.317C319.409 127.321 316.577 130.983 313.257 134.304C309.937 137.624 306.274 140.48 302.271 142.873C298.267 145.217 293.945 147.023 289.307 148.293C284.668 149.611 279.858 150.271 274.878 150.271C269.897 150.271 265.088 149.611 260.449 148.293C255.859 147.023 251.538 145.217 247.485 142.873C243.481 140.48 239.819 137.624 236.499 134.304C233.179 130.983 230.322 127.321 227.93 123.317C225.586 119.265 223.755 114.943 222.437 110.354C221.167 105.715 220.532 100.905 220.532 95.9248C220.532 90.9443 221.167 86.1348 222.437 81.4961C223.755 76.8574 225.586 72.5361 227.93 68.5322C230.322 64.5283 233.179 60.8662 236.499 57.5459C239.819 54.2256 243.481 51.3936 247.485 49.0498C251.538 46.7061 255.859 44.8994 260.449 43.6299C265.088 42.3115 269.897 41.6523 274.878 41.6523C279.858 41.6523 284.668 42.3115 289.307 43.6299C293.945 44.8994 298.267 46.7061 302.271 49.0498C306.274 51.3936 309.937 54.2256 313.257 57.5459C316.577 60.8662 319.409 64.5283 321.753 68.5322C324.097 72.5361 325.903 76.8574 327.173 81.4961C328.491 86.1348 329.15 90.9443 329.15 95.9248ZM308.276 95.9248C308.276 91.335 307.397 87.0137 305.64 82.9609C303.882 78.8594 301.489 75.3193 298.462 72.3408C295.483 69.3135 291.943 66.9209 287.842 65.1631C283.789 63.4053 279.468 62.5264 274.878 62.5264C270.239 62.5264 265.894 63.4053 261.841 65.1631C257.788 66.9209 254.248 69.3135 251.221 72.3408C248.193 75.3193 245.801 78.8594 244.043 82.9609C242.285 87.0137 241.406 91.335 241.406 95.9248C241.406 100.515 242.285 104.836 244.043 108.889C245.801 112.893 248.193 116.408 251.221 119.436C254.248 122.463 257.788 124.855 261.841 126.613C265.894 128.371 270.239 129.25 274.878 129.25C279.468 129.25 283.789 128.371 287.842 126.613C291.943 124.855 295.483 122.463 298.462 119.436C301.489 116.408 303.882 112.893 305.64 108.889C307.397 104.836 308.276 100.515 308.276 95.9248ZM427.148 95.4854C427.148 100.319 426.514 104.982 425.244 109.475C424.023 113.918 422.266 118.093 419.971 121.999C417.676 125.856 414.941 129.396 411.768 132.619C408.594 135.793 405.054 138.527 401.147 140.822C397.241 143.117 393.042 144.899 388.55 146.169C384.106 147.39 379.468 148 374.634 148H342.993V42.9707H374.634C379.468 42.9707 384.106 43.6055 388.55 44.875C393.042 46.0957 397.241 47.8535 401.147 50.1484C405.054 52.4434 408.594 55.2021 411.768 58.4248C414.941 61.5986 417.676 65.1387 419.971 69.0449C422.266 72.9023 424.023 77.0771 425.244 81.5693C426.514 86.0127 427.148 90.6514 427.148 95.4854ZM406.128 95.4854C406.128 91.1396 405.298 87.0625 403.638 83.2539C402.026 79.4453 399.78 76.125 396.899 73.293C394.067 70.4121 390.723 68.1416 386.865 66.4814C383.057 64.8213 378.979 63.9912 374.634 63.9912H364.16V126.979H374.634C378.979 126.979 383.057 126.174 386.865 124.562C390.723 122.902 394.067 120.656 396.899 117.824C399.78 114.943 402.026 111.599 403.638 107.79C405.298 103.933 406.128 99.8311 406.128 95.4854ZM567.334 95.4854C567.334 100.319 566.699 104.982 565.43 109.475C564.209 113.918 562.451 118.093 560.156 121.999C557.861 125.856 555.127 129.396 551.953 132.619C548.779 135.793 545.239 138.527 541.333 140.822C537.427 143.117 533.228 144.899 528.735 146.169C524.292 147.39 519.653 148 514.819 148H483.179V42.9707H514.819C519.653 42.9707 524.292 43.6055 528.735 44.875C533.228 46.0957 537.427 47.8535 541.333 50.1484C545.239 52.4434 548.779 55.2021 551.953 58.4248C555.127 61.5986 557.861 65.1387 560.156 69.0449C562.451 72.9023 564.209 77.0771 565.43 81.5693C566.699 86.0127 567.334 90.6514 567.334 95.4854ZM546.313 95.4854C546.313 91.1396 545.483 87.0625 543.823 83.2539C542.212 79.4453 539.966 76.125 537.085 73.293C534.253 70.4121 530.908 68.1416 527.051 66.4814C523.242 64.8213 519.165 63.9912 514.819 63.9912H504.346V126.979H514.819C519.165 126.979 523.242 126.174 527.051 124.562C530.908 122.902 534.253 120.656 537.085 117.824C539.966 114.943 542.212 111.599 543.823 107.79C545.483 103.933 546.313 99.8311 546.313 95.4854ZM684.229 95.9248C684.229 100.905 683.569 105.715 682.251 110.354C680.981 114.943 679.175 119.265 676.831 123.317C674.487 127.321 671.655 130.983 668.335 134.304C665.015 137.624 661.353 140.48 657.349 142.873C653.345 145.217 649.023 147.023 644.385 148.293C639.746 149.611 634.937 150.271 629.956 150.271C624.976 150.271 620.166 149.611 615.527 148.293C610.938 147.023 606.616 145.217 602.563 142.873C598.56 140.48 594.897 137.624 591.577 134.304C588.257 130.983 585.4 127.321 583.008 123.317C580.664 119.265 578.833 114.943 577.515 110.354C576.245 105.715 575.61 100.905 575.61 95.9248C575.61 90.9443 576.245 86.1348 577.515 81.4961C578.833 76.8574 580.664 72.5361 583.008 68.5322C585.4 64.5283 588.257 60.8662 591.577 57.5459C594.897 54.2256 598.56 51.3936 602.563 49.0498C606.616 46.7061 610.938 44.8994 615.527 43.6299C620.166 42.3115 624.976 41.6523 629.956 41.6523C634.937 41.6523 639.746 42.3115 644.385 43.6299C649.023 44.8994 653.345 46.7061 657.349 49.0498C661.353 51.3936 665.015 54.2256 668.335 57.5459C671.655 60.8662 674.487 64.5283 676.831 68.5322C679.175 72.5361 680.981 76.8574 682.251 81.4961C683.569 86.1348 684.229 90.9443 684.229 95.9248ZM663.354 95.9248C663.354 91.335 662.476 87.0137 660.718 82.9609C658.96 78.8594 656.567 75.3193 653.54 72.3408C650.562 69.3135 647.021 66.9209 642.92 65.1631C638.867 63.4053 634.546 62.5264 629.956 62.5264C625.317 62.5264 620.972 63.4053 616.919 65.1631C612.866 66.9209 609.326 69.3135 606.299 72.3408C603.271 75.3193 600.879 78.8594 599.121 82.9609C597.363 87.0137 596.484 91.335 596.484 95.9248C596.484 100.515 597.363 104.836 599.121 108.889C600.879 112.893 603.271 116.408 606.299 119.436C609.326 122.463 612.866 124.855 616.919 126.613C620.972 128.371 625.317 129.25 629.956 129.25C634.546 129.25 638.867 128.371 642.92 126.613C647.021 124.855 650.562 122.463 653.54 119.436C656.567 116.408 658.96 112.893 660.718 108.889C662.476 104.836 663.354 100.515 663.354 95.9248ZM781.641 137.38C776.758 141.53 771.313 144.729 765.308 146.975C759.302 149.172 753.052 150.271 746.558 150.271C741.577 150.271 736.768 149.611 732.129 148.293C727.539 147.023 723.242 145.217 719.238 142.873C715.234 140.48 711.572 137.648 708.252 134.377C704.932 131.057 702.1 127.395 699.756 123.391C697.412 119.338 695.581 114.992 694.263 110.354C692.993 105.715 692.358 100.905 692.358 95.9248C692.358 90.9443 692.993 86.1592 694.263 81.5693C695.581 76.9795 697.412 72.6826 699.756 68.6787C702.1 64.626 704.932 60.9639 708.252 57.6924C711.572 54.3721 715.234 51.54 719.238 49.1963C723.242 46.8525 727.539 45.0459 732.129 43.7764C736.768 42.458 741.577 41.7988 746.558 41.7988C753.052 41.7988 759.302 42.9219 765.308 45.168C771.313 47.3652 776.758 50.5391 781.641 54.6895L770.654 73C767.48 69.7773 763.818 67.2627 759.668 65.4561C755.518 63.6006 751.147 62.6729 746.558 62.6729C741.968 62.6729 737.646 63.5518 733.594 65.3096C729.59 67.0674 726.074 69.46 723.047 72.4873C720.02 75.4658 717.627 78.9814 715.869 83.0342C714.111 87.0381 713.232 91.335 713.232 95.9248C713.232 100.563 714.111 104.909 715.869 108.962C717.627 113.015 720.02 116.555 723.047 119.582C726.074 122.609 729.59 125.002 733.594 126.76C737.646 128.518 741.968 129.396 746.558 129.396C749.194 129.396 751.758 129.079 754.248 128.444C756.738 127.81 759.106 126.931 761.353 125.808V95.9248H781.641V137.38Z" fill="#F6F8DE"/>
<circle cx="630" cy="96" r="54" fill="#F6F8DE"/>
<path d="M640.938 90.1591L633.799 90.5683C633.308 90.5964 632.933 91.0167 632.962 91.5071L633.068 93.3688C633.096 93.8593 633.517 94.234 634.007 94.2059L641.146 93.7968C641.637 93.7687 642.011 93.3483 641.983 92.8579L641.877 90.9962C641.849 90.5058 641.428 90.131 640.938 90.1591Z" fill="#0D0039"/>
<path d="M652.478 89.865L651.971 94.1876C651.767 95.922 652.867 97.5466 654.556 97.9973L660.355 99.5537L662.629 88.9074L654.672 88.104C653.584 87.9943 652.606 88.777 652.478 89.865Z" fill="#0D0039"/>
<path d="M630 46C602.431 46 580 68.4281 580 96C580 101.422 580.869 106.643 582.473 111.535L587.433 109.525C586.069 105.256 585.336 100.714 585.336 96C585.336 71.3721 605.372 51.3365 630 51.3365C654.628 51.3365 674.664 71.3721 674.664 96C674.664 112.614 665.547 127.138 652.052 134.832L651.808 140.99C668.482 132.872 680 115.757 680 96C680 68.4281 657.572 46 630 46ZM641.198 139.24C639.443 139.697 637.646 140.047 635.814 140.287C633.91 140.536 631.969 140.664 630 140.664C615.84 140.664 603.199 134.04 595.01 123.729C593.875 122.3 592.828 120.803 591.874 119.24C590.943 117.72 590.101 116.139 589.354 114.506L584.403 116.51C585.141 118.146 585.965 119.733 586.869 121.268C587.791 122.84 588.796 124.355 589.878 125.807C599.004 138.055 613.59 146 630 146C631.891 146 633.762 145.893 635.6 145.689C637.424 145.484 639.22 145.182 640.978 144.784C642.819 144.372 644.622 143.857 646.38 143.246L646.608 137.462C644.856 138.167 643.051 138.763 641.198 139.24Z" fill="#0D0039"/>
<path d="M622.188 81.209L622.39 81.5588H622.188V81.209Z" fill="#0D0039"/>
<path d="M665.523 90.6549L662.389 111.535C662.262 112.386 661.734 113.119 660.972 113.513L647.275 120.572L646.608 137.462L646.38 143.246C644.622 143.857 642.819 144.373 640.978 144.785L641.198 139.241L642.004 118.808C642.043 117.847 642.594 116.982 643.448 116.543L657.314 109.395L659.899 92.1758L650.077 89.3415C649.514 89.1785 649.016 88.8346 648.669 88.3602L643.667 81.5592H628.396C628.034 80.7557 627.634 79.9671 627.189 79.1992L625.47 76.2227H645.016C645.867 76.2227 646.665 76.6259 647.169 77.3107L652.431 84.4675L663.623 87.6961C664.909 88.0667 665.719 89.3326 665.523 90.6549Z" fill="#0D0039"/>
<path d="M633.569 110.89C630.37 106.879 624.331 106.375 620.077 109.763C616.697 112.458 615.467 116.802 616.709 120.484C612.6 118.293 609.62 114.569 608.248 112.61L611.283 111.379C612.76 110.78 614.047 110.137 615.212 109.414C621.452 105.533 625.034 99.6567 625.298 92.8675C625.375 90.8456 625.152 88.8325 624.64 86.8936C624.18 85.1444 623.483 83.4545 622.567 81.8654L622.389 81.5571L622.188 81.2073L619.694 76.8906L616.851 78.5331L595.873 90.6469C593.16 92.2123 592.226 95.6958 593.792 98.4115L600.48 109.998L589.353 114.504L584.402 116.508C585.141 118.145 585.965 119.731 586.869 121.267L591.873 119.239L603.199 114.655C605.081 117.602 611.799 126.87 622.134 127.519C622.437 127.54 622.73 127.549 623.018 127.549C626.172 127.549 628.571 126.455 630.272 125.227C630.75 124.958 631.215 124.649 631.663 124.294C635.914 120.902 636.768 114.901 633.569 110.89Z" fill="#0D0039"/>
</svg>
