<svg width="628" height="666" viewBox="0 0 628 666" fill="none" xmlns="http://www.w3.org/2000/svg">
<circle cx="414" cy="414" r="414" transform="matrix(-1 0 0 1 828 0)" fill="#ACDD92"/>
<path d="M414.775 39.8496C620.668 39.8496 788.149 207.354 788.149 413.247C788.149 439.282 785.471 464.72 780.379 489.272L742.742 474.04C746.395 454.315 748.299 434.013 748.299 413.247C748.299 229.338 598.684 79.6999 414.775 79.6999C230.866 79.6999 81.2499 229.338 81.2499 413.247C81.2499 538.044 150.147 647.035 251.875 704.22L253.691 750.07C128.229 689.807 41.3997 561.467 41.3997 413.247C41.3997 207.354 208.904 39.8496 414.775 39.8496ZM332.927 736.609C346.033 739.93 359.449 742.476 373.109 744.181C386.746 745.886 400.672 746.771 414.775 746.771C535.587 746.771 641.589 682.214 700.125 585.776C707.032 574.397 713.275 562.574 718.81 550.332C724.278 538.288 729.016 525.868 733.045 513.116L770.084 528.126C765.966 540.834 761.184 553.232 755.76 565.297C750.314 577.54 744.203 589.407 737.473 600.897C672.694 711.88 552.302 786.621 414.775 786.621C401.248 786.621 387.876 785.891 374.703 784.474C361.087 783.035 347.693 780.843 334.543 777.943C320.794 774.932 307.356 771.146 294.227 766.674L292.545 723.592C305.629 728.75 319.112 733.111 332.927 736.609Z" fill="#0D0039"/>
<path d="M473.111 258.516L471.628 261.106H473.111V258.516Z" fill="#0D0039"/>
<path d="M149.526 329.051L172.905 484.976C173.857 491.308 177.798 496.798 183.488 499.743L285.792 552.456L292.544 723.591L294.227 766.673C307.355 771.145 320.794 774.931 334.542 777.942L332.926 736.608L325.155 539.283C324.867 532.11 320.75 525.645 314.374 522.347L210.807 468.992L191.524 340.386L264.849 319.243C269.077 318.026 272.774 315.435 275.365 311.893L312.713 261.106H426.773C429.452 255.106 432.463 249.24 435.762 243.506L448.603 221.256H302.64C296.308 221.256 290.331 224.289 286.589 229.381L247.292 282.825L163.695 306.934C154.109 309.701 148.043 319.155 149.526 329.051Z" fill="#0D0039"/>
<path d="M329.486 328.342L382.798 331.397C386.46 331.607 389.259 334.746 389.049 338.408L388.252 352.311C388.042 355.973 384.903 358.771 381.241 358.562L327.929 355.506C324.267 355.296 321.469 352.158 321.678 348.496L322.475 334.593C322.685 330.931 325.824 328.132 329.486 328.342Z" fill="#0D0039"/>
<path d="M243.308 326.153L247.094 358.432C248.621 371.383 240.408 383.515 227.788 386.88L184.484 398.503L167.504 319.002L226.925 313.002C235.05 312.183 242.356 318.028 243.308 326.153Z" fill="#0D0039"/>
<path d="M388.14 480.174C412.028 450.22 457.125 446.456 488.895 471.761C514.133 491.885 523.321 524.319 514.045 551.816C544.73 535.455 566.979 507.648 577.252 493.014L554.559 483.827C543.512 479.355 533.926 474.55 525.247 469.148C478.622 440.168 451.878 396.289 449.93 345.568C449.355 330.47 451.015 315.437 454.823 300.958C458.277 287.896 463.457 275.277 470.298 263.433L471.649 261.108L473.132 258.518L491.751 226.283L512.982 238.548L669.638 328.986C689.917 340.698 696.891 366.711 685.18 386.99L635.234 473.488L733.066 513.117L770.105 528.127C765.987 540.835 761.205 553.233 755.781 565.298L718.831 550.332L614.932 508.268C600.874 530.296 550.707 599.481 473.53 604.352C471.272 604.484 469.08 604.573 466.933 604.573C444.838 604.573 427.703 597.378 415.172 588.921C413.534 587.814 411.851 586.751 410.168 585.711C407.512 584.072 404.922 582.279 402.42 580.264C370.672 554.937 364.296 510.128 388.184 480.174H388.14Z" fill="#0D0039"/>
</svg>
