<svg width="732" height="110" viewBox="0 0 732 110" fill="none" xmlns="http://www.w3.org/2000/svg">
<path d="M74.2764 107H0.741211V1.9707H21.7617V85.9795H74.2764V107ZM106.283 107H85.2627V1.9707H106.283V107ZM209.701 96.2334C204.818 100.433 199.35 103.655 193.295 105.901C187.24 108.147 180.966 109.271 174.472 109.271C169.491 109.271 164.682 108.611 160.043 107.293C155.453 106.023 151.132 104.217 147.079 101.873C143.075 99.4805 139.413 96.624 136.093 93.3037C132.772 89.9834 129.916 86.3213 127.523 82.3174C125.18 78.2646 123.349 73.9434 122.03 69.3535C120.761 64.7148 120.126 59.9053 120.126 54.9248C120.126 49.9443 120.761 45.1348 122.03 40.4961C123.349 35.8574 125.18 31.5361 127.523 27.5322C129.916 23.4795 132.772 19.793 136.093 16.4727C139.413 13.1523 143.075 10.3203 147.079 7.97656C151.132 5.58398 155.453 3.75293 160.043 2.4834C164.682 1.16504 169.491 0.505859 174.472 0.505859C180.966 0.505859 187.24 1.62891 193.295 3.875C199.35 6.07227 204.818 9.29492 209.701 13.543L198.568 31.8535C195.492 28.5332 191.854 25.9941 187.655 24.2363C183.456 22.4297 179.062 21.5264 174.472 21.5264C169.833 21.5264 165.487 22.4053 161.435 24.1631C157.382 25.9209 153.842 28.3135 150.814 31.3408C147.787 34.3193 145.395 37.8594 143.637 41.9609C141.879 46.0137 141 50.335 141 54.9248C141 59.5146 141.879 63.8359 143.637 67.8887C145.395 71.8926 147.787 75.4082 150.814 78.4355C153.842 81.4629 157.382 83.8555 161.435 85.6133C165.487 87.3711 169.833 88.25 174.472 88.25C179.062 88.25 183.456 87.3711 187.655 85.6133C191.854 83.8066 195.492 81.2432 198.568 77.9229L209.701 96.2334ZM293.93 107H221.933V1.9707H293.93V22.9912H242.953V44.0117H277.45V65.0322H242.953V85.9795H293.93V107ZM392.66 107H370.175L329.672 37.8594V107H308.651V1.9707H331.137L371.64 71.1846V1.9707H392.66V107ZM406.063 33.4648C406.063 29.1191 406.894 25.042 408.554 21.2334C410.214 17.4248 412.46 14.1045 415.292 11.2725C418.173 8.3916 421.518 6.12109 425.326 4.46094C429.135 2.80078 433.212 1.9707 437.558 1.9707H485.751V22.9912H437.558C436.093 22.9912 434.726 23.2598 433.456 23.7969C432.187 24.334 431.063 25.0908 430.087 26.0674C429.159 26.9951 428.427 28.0938 427.89 29.3633C427.353 30.6328 427.084 32 427.084 33.4648C427.084 34.9297 427.353 36.3213 427.89 37.6396C428.427 38.9092 429.159 40.0322 430.087 41.0088C431.063 41.9365 432.187 42.6689 433.456 43.2061C434.726 43.7432 436.093 44.0117 437.558 44.0117H458.578C462.924 44.0117 467.001 44.8418 470.81 46.502C474.667 48.1133 478.012 50.3594 480.844 53.2402C483.725 56.0723 485.971 59.417 487.582 63.2744C489.242 67.083 490.072 71.1602 490.072 75.5059C490.072 79.8516 489.242 83.9287 487.582 87.7373C485.971 91.5459 483.725 94.8906 480.844 97.7715C478.012 100.604 474.667 102.85 470.81 104.51C467.001 106.17 462.924 107 458.578 107H411.923V85.9795H458.578C460.043 85.9795 461.41 85.7109 462.68 85.1738C463.949 84.6367 465.048 83.9043 465.976 82.9766C466.952 82 467.709 80.877 468.246 79.6074C468.783 78.3379 469.052 76.9707 469.052 75.5059C469.052 74.041 468.783 72.6738 468.246 71.4043C467.709 70.1348 466.952 69.0361 465.976 68.1084C465.048 67.1318 463.949 66.375 462.68 65.8379C461.41 65.3008 460.043 65.0322 458.578 65.0322H437.558C433.212 65.0322 429.135 64.2021 425.326 62.542C421.518 60.8818 418.173 58.6357 415.292 55.8037C412.46 52.9229 410.214 49.5781 408.554 45.7695C406.894 41.9121 406.063 37.8105 406.063 33.4648ZM524.936 107H503.915V1.9707H524.936V107ZM628.5 107H606.015L565.512 37.8594V107H544.491V1.9707H566.977L607.479 71.1846V1.9707H628.5V107ZM731.625 96.3799C726.742 100.53 721.298 103.729 715.292 105.975C709.286 108.172 703.036 109.271 696.542 109.271C691.562 109.271 686.752 108.611 682.113 107.293C677.523 106.023 673.227 104.217 669.223 101.873C665.219 99.4805 661.557 96.6484 658.236 93.377C654.916 90.0566 652.084 86.3945 649.74 82.3906C647.396 78.3379 645.565 73.9922 644.247 69.3535C642.978 64.7148 642.343 59.9053 642.343 54.9248C642.343 49.9443 642.978 45.1592 644.247 40.5693C645.565 35.9795 647.396 31.6826 649.74 27.6787C652.084 23.626 654.916 19.9639 658.236 16.6924C661.557 13.3721 665.219 10.54 669.223 8.19629C673.227 5.85254 677.523 4.0459 682.113 2.77637C686.752 1.45801 691.562 0.798828 696.542 0.798828C703.036 0.798828 709.286 1.92187 715.292 4.16797C721.298 6.36523 726.742 9.53906 731.625 13.6895L720.639 32C717.465 28.7773 713.803 26.2627 709.652 24.4561C705.502 22.6006 701.132 21.6729 696.542 21.6729C691.952 21.6729 687.631 22.5518 683.578 24.3096C679.574 26.0674 676.059 28.46 673.031 31.4873C670.004 34.4658 667.611 37.9814 665.854 42.0342C664.096 46.0381 663.217 50.335 663.217 54.9248C663.217 59.5635 664.096 63.9092 665.854 67.9619C667.611 72.0146 670.004 75.5547 673.031 78.582C676.059 81.6094 679.574 84.002 683.578 85.7598C687.631 87.5176 691.952 88.3965 696.542 88.3965C699.179 88.3965 701.742 88.0791 704.232 87.4443C706.723 86.8096 709.091 85.9307 711.337 84.8076V54.9248H731.625V96.3799Z" fill="#F6F8DE"/>
</svg>
