<svg width="24" height="24" viewBox="0 0 24 24" fill="none" xmlns="http://www.w3.org/2000/svg">
<g id="vuesax/bold/music">
<g id="music">
<path id="Vector" d="M20.8899 5.18056V16.4806C20.8899 18.4606 19.2799 20.0706 17.2999 20.0706C15.3299 20.0706 13.7099 18.4606 13.7099 16.4806C13.7099 14.5106 15.3299 12.9006 17.2999 12.9006C18.1399 12.9006 18.8899 13.1906 19.4999 13.6706V7.72056L10.2899 10.3406V18.4106C10.2899 20.3906 8.66986 22.0006 6.69986 22.0006C4.71986 22.0006 3.10986 20.3906 3.10986 18.4106C3.10986 16.4406 4.71986 14.8306 6.69986 14.8306C7.52986 14.8306 8.27986 15.1206 8.88986 15.5906V6.75056C8.88986 5.28056 9.77986 4.14056 11.1899 3.76056L16.9699 2.18056C18.1399 1.86056 19.1299 1.97056 19.8299 2.51056C20.5399 3.04056 20.8899 3.94056 20.8899 5.18056Z" fill="#A3A3A3"/>
</g>
</g>
</svg>
