<svg width="49" height="51" viewBox="0 0 49 51" fill="none" xmlns="http://www.w3.org/2000/svg">
<path d="M29.8591 22.4579L26.3609 22.666C26.1206 22.6803 25.9369 22.8941 25.9507 23.1435L26.003 24.0903C26.0168 24.3397 26.2227 24.5303 26.463 24.516L29.9612 24.3079C30.2015 24.2936 30.3852 24.0799 30.3714 23.8305L30.3191 22.8836C30.3053 22.6342 30.0994 22.4436 29.8591 22.4579Z" fill="black"/>
<path d="M35.5143 22.3085L35.2659 24.5068C35.1656 25.3888 35.7046 26.2151 36.5326 26.4443L39.3741 27.2358L40.4884 21.8215L36.5893 21.4129C36.0561 21.3571 35.5768 21.7552 35.5143 22.3085Z" fill="black"/>
<path d="M24.5 0C10.9912 0 0 11.4061 0 25.428C0 28.1857 0.425644 30.8408 1.21156 33.3286L3.64195 32.3064C2.9737 30.1352 2.61488 27.8253 2.61488 25.428C2.61488 12.9032 12.4323 2.71393 24.5 2.71393C36.5677 2.71393 46.3851 12.9032 46.3851 25.428C46.3851 33.8774 41.918 41.2638 35.3053 45.1764L35.1862 48.308C43.3562 44.1798 49 35.4756 49 25.428C49 11.4061 38.0102 0 24.5 0ZM29.9869 47.4184C29.1269 47.6506 28.2465 47.8285 27.3488 47.9507C26.4161 48.0773 25.4646 48.1421 24.5 48.1421C17.5618 48.1421 11.3675 44.7738 7.35508 39.5299C6.79869 38.8032 6.28589 38.0418 5.81811 37.2472C5.36196 36.4737 4.94939 35.6701 4.58331 34.8394L2.15727 35.8586C2.519 36.6909 2.92286 37.4975 3.36593 38.2785C3.81773 39.0776 4.3102 39.8481 4.84044 40.5869C9.31188 46.8153 16.4592 50.8561 24.5 50.8561C25.4268 50.8561 26.3435 50.8018 27.2442 50.6978C28.1376 50.5937 29.0179 50.4399 29.8794 50.2379C30.7815 50.0283 31.6648 49.766 32.5262 49.4554L32.6381 46.5138C31.7795 46.8726 30.8948 47.1757 29.9869 47.4184Z" fill="black"/>
<path d="M20.6719 17.9058L20.7707 18.0831H20.6719V17.9058Z" fill="black"/>
<path d="M41.9064 22.7093L40.3709 33.3283C40.3084 33.761 40.0499 34.1335 39.6765 34.334L32.965 37.9239L32.6381 46.5135L32.5263 49.4551C31.6648 49.7657 30.7815 50.0281 29.8794 50.2376L29.9869 47.4182L30.3821 37.0268C30.4009 36.5383 30.6711 36.098 31.0895 35.8749L37.8839 32.2397L39.1506 23.4828L34.3378 22.0414C34.0618 21.9585 33.8177 21.7836 33.6478 21.5423L31.197 18.0836H23.7141C23.5369 17.675 23.3408 17.2739 23.1229 16.8834L22.2803 15.3696H31.858C32.2749 15.3696 32.6657 15.5747 32.9127 15.923L35.4912 19.5627L40.9752 21.2046C41.6057 21.3931 42.0023 22.0369 41.9064 22.7093Z" fill="black"/>
<path d="M26.249 33.0012C24.6815 30.9612 21.7224 30.7049 19.6377 32.4283C17.9816 33.7988 17.3788 36.0076 17.9874 37.8803C15.974 36.766 14.514 34.8723 13.8414 33.8757L15.329 33.25C16.0524 32.9454 16.6829 32.6183 17.2538 32.2504C20.3118 30.2767 22.0667 27.2884 22.196 23.8357C22.2337 22.8074 22.1248 21.7836 21.8734 20.7976C21.6483 19.908 21.3069 19.0486 20.858 18.2404L20.7708 18.0836L20.6721 17.9057L19.4503 15.7104L18.0572 16.5457L7.77777 22.7064C6.44854 23.5024 5.99094 25.274 6.75797 26.6551L10.0353 32.5474L4.58326 34.8391L2.15723 35.8584C2.51895 36.6907 2.92281 37.4973 3.36588 38.2783L5.81806 37.247L11.3674 34.916C12.2899 36.4147 15.5817 41.1279 20.6459 41.4581C20.7941 41.4687 20.9379 41.4732 21.0788 41.4732C22.6245 41.4732 23.7997 40.9168 24.6336 40.2926C24.8675 40.1554 25.0956 39.9986 25.3149 39.8177C27.3981 38.0929 27.8165 35.0412 26.249 33.0012Z" fill="black"/>
</svg>
