<svg width="94" height="900" viewBox="0 0 94 900" fill="none" xmlns="http://www.w3.org/2000/svg">
<rect x="94" y="-0.125" width="23.6875" height="23.5" transform="rotate(90 94 -0.125)" fill="#0D0039"/>
<rect x="70.5" y="-0.125" width="23.6875" height="23.5" transform="rotate(90 70.5 -0.125)" fill="#ACDD92"/>
<rect x="94" y="23.5625" width="23.6875" height="23.5" transform="rotate(90 94 23.5625)" fill="#ACDD92"/>
<rect x="70.5" y="23.5625" width="23.6875" height="23.5" transform="rotate(90 70.5 23.5625)" fill="#0D0039"/>
<rect x="94" y="47.25" width="23.6875" height="23.5" transform="rotate(90 94 47.25)" fill="#0D0039"/>
<rect x="70.5" y="47.25" width="23.6875" height="23.5" transform="rotate(90 70.5 47.25)" fill="#ACDD92"/>
<rect x="94" y="70.9375" width="23.6875" height="23.5" transform="rotate(90 94 70.9375)" fill="#ACDD92"/>
<rect x="70.5" y="70.9375" width="23.6875" height="23.5" transform="rotate(90 70.5 70.9375)" fill="#0D0039"/>
<rect x="94" y="94.625" width="23.6875" height="23.5" transform="rotate(90 94 94.625)" fill="#0D0039"/>
<rect x="70.5" y="94.625" width="23.6875" height="23.5" transform="rotate(90 70.5 94.625)" fill="#ACDD92"/>
<rect x="94" y="118.312" width="23.6875" height="23.5" transform="rotate(90 94 118.312)" fill="#ACDD92"/>
<rect x="70.5" y="118.312" width="23.6875" height="23.5" transform="rotate(90 70.5 118.312)" fill="#0D0039"/>
<rect x="47" y="-0.125" width="23.6875" height="23.5" transform="rotate(90 47 -0.125)" fill="#0D0039"/>
<rect x="23.5" y="-0.125" width="23.6875" height="23.5" transform="rotate(90 23.5 -0.125)" fill="#ACDD92"/>
<rect x="47" y="23.5625" width="23.6875" height="23.5" transform="rotate(90 47 23.5625)" fill="#ACDD92"/>
<rect x="23.5" y="23.5625" width="23.6875" height="23.5" transform="rotate(90 23.5 23.5625)" fill="#0D0039"/>
<rect x="47" y="47.25" width="23.6875" height="23.5" transform="rotate(90 47 47.25)" fill="#0D0039"/>
<rect x="23.5" y="47.25" width="23.6875" height="23.5" transform="rotate(90 23.5 47.25)" fill="#ACDD92"/>
<rect x="47" y="70.9375" width="23.6875" height="23.5" transform="rotate(90 47 70.9375)" fill="#ACDD92"/>
<rect x="23.5" y="70.9375" width="23.6875" height="23.5" transform="rotate(90 23.5 70.9375)" fill="#0D0039"/>
<rect x="47" y="94.625" width="23.6875" height="23.5" transform="rotate(90 47 94.625)" fill="#0D0039"/>
<rect x="23.5" y="94.625" width="23.6875" height="23.5" transform="rotate(90 23.5 94.625)" fill="#ACDD92"/>
<rect x="47" y="118.312" width="23.6875" height="23.5" transform="rotate(90 47 118.312)" fill="#ACDD92"/>
<rect x="23.5" y="118.312" width="23.6875" height="23.5" transform="rotate(90 23.5 118.312)" fill="#0D0039"/>
<rect x="94" y="142" width="23.6875" height="23.5" transform="rotate(90 94 142)" fill="#0D0039"/>
<rect x="70.5" y="142" width="23.6875" height="23.5" transform="rotate(90 70.5 142)" fill="#ACDD92"/>
<rect x="94" y="165.688" width="23.6875" height="23.5" transform="rotate(90 94 165.688)" fill="#ACDD92"/>
<rect x="70.5" y="165.688" width="23.6875" height="23.5" transform="rotate(90 70.5 165.688)" fill="#0D0039"/>
<rect x="94" y="189.375" width="23.6875" height="23.5" transform="rotate(90 94 189.375)" fill="#0D0039"/>
<rect x="70.5" y="189.375" width="23.6875" height="23.5" transform="rotate(90 70.5 189.375)" fill="#ACDD92"/>
<rect x="94" y="213.062" width="23.6875" height="23.5" transform="rotate(90 94 213.062)" fill="#ACDD92"/>
<rect x="70.5" y="213.062" width="23.6875" height="23.5" transform="rotate(90 70.5 213.062)" fill="#0D0039"/>
<rect x="94" y="236.75" width="23.6875" height="23.5" transform="rotate(90 94 236.75)" fill="#0D0039"/>
<rect x="70.5" y="236.75" width="23.6875" height="23.5" transform="rotate(90 70.5 236.75)" fill="#ACDD92"/>
<rect x="94" y="260.438" width="23.6875" height="23.5" transform="rotate(90 94 260.438)" fill="#ACDD92"/>
<rect x="70.5" y="260.438" width="23.6875" height="23.5" transform="rotate(90 70.5 260.438)" fill="#0D0039"/>
<rect x="94" y="284.125" width="23.6875" height="23.5" transform="rotate(90 94 284.125)" fill="#0D0039"/>
<rect x="70.5" y="284.125" width="23.6875" height="23.5" transform="rotate(90 70.5 284.125)" fill="#ACDD92"/>
<rect x="94" y="307.812" width="23.6875" height="23.5" transform="rotate(90 94 307.812)" fill="#ACDD92"/>
<rect x="70.5" y="307.812" width="23.6875" height="23.5" transform="rotate(90 70.5 307.812)" fill="#0D0039"/>
<rect x="47" y="142" width="23.6875" height="23.5" transform="rotate(90 47 142)" fill="#0D0039"/>
<rect x="23.5" y="142" width="23.6875" height="23.5" transform="rotate(90 23.5 142)" fill="#ACDD92"/>
<rect x="47" y="165.688" width="23.6875" height="23.5" transform="rotate(90 47 165.688)" fill="#ACDD92"/>
<rect x="23.5" y="165.688" width="23.6875" height="23.5" transform="rotate(90 23.5 165.688)" fill="#0D0039"/>
<rect x="47" y="189.375" width="23.6875" height="23.5" transform="rotate(90 47 189.375)" fill="#0D0039"/>
<rect x="23.5" y="189.375" width="23.6875" height="23.5" transform="rotate(90 23.5 189.375)" fill="#ACDD92"/>
<rect x="47" y="213.062" width="23.6875" height="23.5" transform="rotate(90 47 213.062)" fill="#ACDD92"/>
<rect x="23.5" y="213.062" width="23.6875" height="23.5" transform="rotate(90 23.5 213.062)" fill="#0D0039"/>
<rect x="47" y="236.75" width="23.6875" height="23.5" transform="rotate(90 47 236.75)" fill="#0D0039"/>
<rect x="23.5" y="236.75" width="23.6875" height="23.5" transform="rotate(90 23.5 236.75)" fill="#ACDD92"/>
<rect x="47" y="260.438" width="23.6875" height="23.5" transform="rotate(90 47 260.438)" fill="#ACDD92"/>
<rect x="23.5" y="260.438" width="23.6875" height="23.5" transform="rotate(90 23.5 260.438)" fill="#0D0039"/>
<rect x="47" y="284.125" width="23.6875" height="23.5" transform="rotate(90 47 284.125)" fill="#0D0039"/>
<rect x="23.5" y="284.125" width="23.6875" height="23.5" transform="rotate(90 23.5 284.125)" fill="#ACDD92"/>
<rect x="47" y="307.812" width="23.6875" height="23.5" transform="rotate(90 47 307.812)" fill="#ACDD92"/>
<rect x="23.5" y="307.812" width="23.6875" height="23.5" transform="rotate(90 23.5 307.812)" fill="#0D0039"/>
<rect x="94" y="331.5" width="23.6875" height="23.5" transform="rotate(90 94 331.5)" fill="#0D0039"/>
<rect x="70.5" y="331.5" width="23.6875" height="23.5" transform="rotate(90 70.5 331.5)" fill="#ACDD92"/>
<rect x="94" y="355.188" width="23.6875" height="23.5" transform="rotate(90 94 355.188)" fill="#ACDD92"/>
<rect x="70.5" y="355.188" width="23.6875" height="23.5" transform="rotate(90 70.5 355.188)" fill="#0D0039"/>
<rect x="94" y="378.875" width="23.6875" height="23.5" transform="rotate(90 94 378.875)" fill="#0D0039"/>
<rect x="70.5" y="378.875" width="23.6875" height="23.5" transform="rotate(90 70.5 378.875)" fill="#ACDD92"/>
<rect x="94" y="402.562" width="23.6875" height="23.5" transform="rotate(90 94 402.562)" fill="#ACDD92"/>
<rect x="70.5" y="402.562" width="23.6875" height="23.5" transform="rotate(90 70.5 402.562)" fill="#0D0039"/>
<rect x="94" y="426.25" width="23.6875" height="23.5" transform="rotate(90 94 426.25)" fill="#0D0039"/>
<rect x="70.5" y="426.25" width="23.6875" height="23.5" transform="rotate(90 70.5 426.25)" fill="#ACDD92"/>
<rect x="94" y="449.938" width="23.6875" height="23.5" transform="rotate(90 94 449.938)" fill="#ACDD92"/>
<rect x="70.5" y="449.938" width="23.6875" height="23.5" transform="rotate(90 70.5 449.938)" fill="#0D0039"/>
<rect x="94" y="473.625" width="23.6875" height="23.5" transform="rotate(90 94 473.625)" fill="#0D0039"/>
<rect x="70.5" y="473.625" width="23.6875" height="23.5" transform="rotate(90 70.5 473.625)" fill="#ACDD92"/>
<rect x="94" y="497.312" width="23.6875" height="23.5" transform="rotate(90 94 497.312)" fill="#ACDD92"/>
<rect x="70.5" y="497.312" width="23.6875" height="23.5" transform="rotate(90 70.5 497.312)" fill="#0D0039"/>
<rect x="47" y="331.5" width="23.6875" height="23.5" transform="rotate(90 47 331.5)" fill="#0D0039"/>
<rect x="23.5" y="331.5" width="23.6875" height="23.5" transform="rotate(90 23.5 331.5)" fill="#ACDD92"/>
<rect x="47" y="355.188" width="23.6875" height="23.5" transform="rotate(90 47 355.188)" fill="#ACDD92"/>
<rect x="23.5" y="355.188" width="23.6875" height="23.5" transform="rotate(90 23.5 355.188)" fill="#0D0039"/>
<rect x="47" y="378.875" width="23.6875" height="23.5" transform="rotate(90 47 378.875)" fill="#0D0039"/>
<rect x="23.5" y="378.875" width="23.6875" height="23.5" transform="rotate(90 23.5 378.875)" fill="#ACDD92"/>
<rect x="47" y="402.562" width="23.6875" height="23.5" transform="rotate(90 47 402.562)" fill="#ACDD92"/>
<rect x="23.5" y="402.562" width="23.6875" height="23.5" transform="rotate(90 23.5 402.562)" fill="#0D0039"/>
<rect x="47" y="426.25" width="23.6875" height="23.5" transform="rotate(90 47 426.25)" fill="#0D0039"/>
<rect x="23.5" y="426.25" width="23.6875" height="23.5" transform="rotate(90 23.5 426.25)" fill="#ACDD92"/>
<rect x="47" y="449.938" width="23.6875" height="23.5" transform="rotate(90 47 449.938)" fill="#ACDD92"/>
<rect x="23.5" y="449.938" width="23.6875" height="23.5" transform="rotate(90 23.5 449.938)" fill="#0D0039"/>
<rect x="47" y="473.625" width="23.6875" height="23.5" transform="rotate(90 47 473.625)" fill="#0D0039"/>
<rect x="23.5" y="473.625" width="23.6875" height="23.5" transform="rotate(90 23.5 473.625)" fill="#ACDD92"/>
<rect x="47" y="497.312" width="23.6875" height="23.5" transform="rotate(90 47 497.312)" fill="#ACDD92"/>
<rect x="23.5" y="497.312" width="23.6875" height="23.5" transform="rotate(90 23.5 497.312)" fill="#0D0039"/>
<rect x="93.9999" y="521" width="23.6875" height="23.5" transform="rotate(90 93.9999 521)" fill="#0D0039"/>
<rect x="70.5" y="521" width="23.6875" height="23.5" transform="rotate(90 70.5 521)" fill="#ACDD92"/>
<rect x="93.9999" y="544.688" width="23.6875" height="23.5" transform="rotate(90 93.9999 544.688)" fill="#ACDD92"/>
<rect x="70.5" y="544.688" width="23.6875" height="23.5" transform="rotate(90 70.5 544.688)" fill="#0D0039"/>
<rect x="93.9999" y="568.375" width="23.6875" height="23.5" transform="rotate(90 93.9999 568.375)" fill="#0D0039"/>
<rect x="70.5" y="568.375" width="23.6875" height="23.5" transform="rotate(90 70.5 568.375)" fill="#ACDD92"/>
<rect x="93.9999" y="592.062" width="23.6875" height="23.5" transform="rotate(90 93.9999 592.062)" fill="#ACDD92"/>
<rect x="70.5" y="592.062" width="23.6875" height="23.5" transform="rotate(90 70.5 592.062)" fill="#0D0039"/>
<rect x="93.9999" y="615.75" width="23.6875" height="23.5" transform="rotate(90 93.9999 615.75)" fill="#0D0039"/>
<rect x="70.5" y="615.75" width="23.6875" height="23.5" transform="rotate(90 70.5 615.75)" fill="#ACDD92"/>
<rect x="93.9999" y="639.438" width="23.6875" height="23.5" transform="rotate(90 93.9999 639.438)" fill="#ACDD92"/>
<rect x="70.5" y="639.438" width="23.6875" height="23.5" transform="rotate(90 70.5 639.438)" fill="#0D0039"/>
<rect x="93.9999" y="663.125" width="23.6875" height="23.5" transform="rotate(90 93.9999 663.125)" fill="#0D0039"/>
<rect x="70.5" y="663.125" width="23.6875" height="23.5" transform="rotate(90 70.5 663.125)" fill="#ACDD92"/>
<rect x="93.9999" y="686.812" width="23.6875" height="23.5" transform="rotate(90 93.9999 686.812)" fill="#ACDD92"/>
<rect x="70.5" y="686.812" width="23.6875" height="23.5" transform="rotate(90 70.5 686.812)" fill="#0D0039"/>
<rect x="47" y="521" width="23.6875" height="23.5" transform="rotate(90 47 521)" fill="#0D0039"/>
<rect x="23.5" y="521" width="23.6875" height="23.5" transform="rotate(90 23.5 521)" fill="#ACDD92"/>
<rect x="47" y="544.688" width="23.6875" height="23.5" transform="rotate(90 47 544.688)" fill="#ACDD92"/>
<rect x="23.5" y="544.688" width="23.6875" height="23.5" transform="rotate(90 23.5 544.688)" fill="#0D0039"/>
<rect x="47" y="568.375" width="23.6875" height="23.5" transform="rotate(90 47 568.375)" fill="#0D0039"/>
<rect x="23.5" y="568.375" width="23.6875" height="23.5" transform="rotate(90 23.5 568.375)" fill="#ACDD92"/>
<rect x="47" y="592.062" width="23.6875" height="23.5" transform="rotate(90 47 592.062)" fill="#ACDD92"/>
<rect x="23.5" y="592.062" width="23.6875" height="23.5" transform="rotate(90 23.5 592.062)" fill="#0D0039"/>
<rect x="47" y="615.75" width="23.6875" height="23.5" transform="rotate(90 47 615.75)" fill="#0D0039"/>
<rect x="23.5" y="615.75" width="23.6875" height="23.5" transform="rotate(90 23.5 615.75)" fill="#ACDD92"/>
<rect x="47" y="639.438" width="23.6875" height="23.5" transform="rotate(90 47 639.438)" fill="#ACDD92"/>
<rect x="23.5" y="639.438" width="23.6875" height="23.5" transform="rotate(90 23.5 639.438)" fill="#0D0039"/>
<rect x="47" y="663.125" width="23.6875" height="23.5" transform="rotate(90 47 663.125)" fill="#0D0039"/>
<rect x="23.5" y="663.125" width="23.6875" height="23.5" transform="rotate(90 23.5 663.125)" fill="#ACDD92"/>
<rect x="47" y="686.812" width="23.6875" height="23.5" transform="rotate(90 47 686.812)" fill="#ACDD92"/>
<rect x="23.5" y="686.812" width="23.6875" height="23.5" transform="rotate(90 23.5 686.812)" fill="#0D0039"/>
<rect x="93.9999" y="710.5" width="23.6875" height="23.5" transform="rotate(90 93.9999 710.5)" fill="#0D0039"/>
<rect x="70.5" y="710.5" width="23.6875" height="23.5" transform="rotate(90 70.5 710.5)" fill="#ACDD92"/>
<rect x="93.9999" y="734.188" width="23.6875" height="23.5" transform="rotate(90 93.9999 734.188)" fill="#ACDD92"/>
<rect x="70.5" y="734.188" width="23.6875" height="23.5" transform="rotate(90 70.5 734.188)" fill="#0D0039"/>
<rect x="93.9999" y="757.875" width="23.6875" height="23.5" transform="rotate(90 93.9999 757.875)" fill="#0D0039"/>
<rect x="70.5" y="757.875" width="23.6875" height="23.5" transform="rotate(90 70.5 757.875)" fill="#ACDD92"/>
<rect x="93.9999" y="781.562" width="23.6875" height="23.5" transform="rotate(90 93.9999 781.562)" fill="#ACDD92"/>
<rect x="70.5" y="781.562" width="23.6875" height="23.5" transform="rotate(90 70.5 781.562)" fill="#0D0039"/>
<rect x="93.9999" y="805.25" width="23.6875" height="23.5" transform="rotate(90 93.9999 805.25)" fill="#0D0039"/>
<rect x="70.5" y="805.25" width="23.6875" height="23.5" transform="rotate(90 70.5 805.25)" fill="#ACDD92"/>
<rect x="93.9999" y="828.938" width="23.6875" height="23.5" transform="rotate(90 93.9999 828.938)" fill="#ACDD92"/>
<rect x="70.5" y="828.938" width="23.6875" height="23.5" transform="rotate(90 70.5 828.938)" fill="#0D0039"/>
<rect x="93.9999" y="852.625" width="23.6875" height="23.5" transform="rotate(90 93.9999 852.625)" fill="#0D0039"/>
<rect x="70.5" y="852.625" width="23.6875" height="23.5" transform="rotate(90 70.5 852.625)" fill="#ACDD92"/>
<rect x="93.9999" y="876.312" width="23.6875" height="23.5" transform="rotate(90 93.9999 876.312)" fill="#ACDD92"/>
<rect x="70.5" y="876.312" width="23.6875" height="23.5" transform="rotate(90 70.5 876.312)" fill="#0D0039"/>
<rect x="47" y="710.5" width="23.6875" height="23.5" transform="rotate(90 47 710.5)" fill="#0D0039"/>
<rect x="23.5" y="710.5" width="23.6875" height="23.5" transform="rotate(90 23.5 710.5)" fill="#ACDD92"/>
<rect x="47" y="734.188" width="23.6875" height="23.5" transform="rotate(90 47 734.188)" fill="#ACDD92"/>
<rect x="23.5" y="734.188" width="23.6875" height="23.5" transform="rotate(90 23.5 734.188)" fill="#0D0039"/>
<rect x="47" y="757.875" width="23.6875" height="23.5" transform="rotate(90 47 757.875)" fill="#0D0039"/>
<rect x="23.5" y="757.875" width="23.6875" height="23.5" transform="rotate(90 23.5 757.875)" fill="#ACDD92"/>
<rect x="47" y="781.562" width="23.6875" height="23.5" transform="rotate(90 47 781.562)" fill="#ACDD92"/>
<rect x="23.5" y="781.562" width="23.6875" height="23.5" transform="rotate(90 23.5 781.562)" fill="#0D0039"/>
<rect x="47" y="805.25" width="23.6875" height="23.5" transform="rotate(90 47 805.25)" fill="#0D0039"/>
<rect x="23.5" y="805.25" width="23.6875" height="23.5" transform="rotate(90 23.5 805.25)" fill="#ACDD92"/>
<rect x="47" y="828.938" width="23.6875" height="23.5" transform="rotate(90 47 828.938)" fill="#ACDD92"/>
<rect x="23.5" y="828.938" width="23.6875" height="23.5" transform="rotate(90 23.5 828.938)" fill="#0D0039"/>
<rect x="47" y="852.625" width="23.6875" height="23.5" transform="rotate(90 47 852.625)" fill="#0D0039"/>
<rect x="23.5" y="852.625" width="23.6875" height="23.5" transform="rotate(90 23.5 852.625)" fill="#ACDD92"/>
<rect x="47" y="876.312" width="23.6875" height="23.5" transform="rotate(90 47 876.312)" fill="#ACDD92"/>
<rect x="23.5" y="876.312" width="23.6875" height="23.5" transform="rotate(90 23.5 876.312)" fill="#0D0039"/>
</svg>
