<svg width="1280" height="94" viewBox="0 0 1280 94" fill="none" xmlns="http://www.w3.org/2000/svg">
<rect x="-23.25" width="23.6875" height="23.5" fill="#0D0039"/>
<rect x="-23.25" y="23.5" width="23.6875" height="23.5" fill="#ACDD92"/>
<rect x="0.4375" width="23.6875" height="23.5" fill="#ACDD92"/>
<rect x="0.4375" y="23.5" width="23.6875" height="23.5" fill="#0D0039"/>
<rect x="24.125" width="23.6875" height="23.5" fill="#0D0039"/>
<rect x="24.125" y="23.5" width="23.6875" height="23.5" fill="#ACDD92"/>
<rect x="47.8125" width="23.6875" height="23.5" fill="#ACDD92"/>
<rect x="47.8125" y="23.5" width="23.6875" height="23.5" fill="#0D0039"/>
<rect x="-23.25" y="46.9999" width="23.6875" height="23.5" fill="#0D0039"/>
<rect x="-23.25" y="70.4999" width="23.6875" height="23.5" fill="#ACDD92"/>
<rect x="0.4375" y="46.9999" width="23.6875" height="23.5" fill="#ACDD92"/>
<rect x="0.4375" y="70.4999" width="23.6875" height="23.5" fill="#0D0039"/>
<rect x="24.125" y="46.9999" width="23.6875" height="23.5" fill="#0D0039"/>
<rect x="24.125" y="70.4999" width="23.6875" height="23.5" fill="#ACDD92"/>
<rect x="47.8125" y="46.9999" width="23.6875" height="23.5" fill="#ACDD92"/>
<rect x="47.8125" y="70.4999" width="23.6875" height="23.5" fill="#0D0039"/>
<rect x="71.5" width="23.6875" height="23.5" fill="#0D0039"/>
<rect x="71.5" y="23.5" width="23.6875" height="23.5" fill="#ACDD92"/>
<rect x="95.1875" width="23.6875" height="23.5" fill="#ACDD92"/>
<rect x="95.1875" y="23.5" width="23.6875" height="23.5" fill="#0D0039"/>
<rect x="118.875" width="23.6875" height="23.5" fill="#0D0039"/>
<rect x="118.875" y="23.5" width="23.6875" height="23.5" fill="#ACDD92"/>
<rect x="142.562" width="23.6875" height="23.5" fill="#ACDD92"/>
<rect x="142.562" y="23.5" width="23.6875" height="23.5" fill="#0D0039"/>
<rect x="166.25" width="23.6875" height="23.5" fill="#0D0039"/>
<rect x="166.25" y="23.5" width="23.6875" height="23.5" fill="#ACDD92"/>
<rect x="189.938" width="23.6875" height="23.5" fill="#ACDD92"/>
<rect x="189.938" y="23.5" width="23.6875" height="23.5" fill="#0D0039"/>
<rect x="213.625" width="23.6875" height="23.5" fill="#0D0039"/>
<rect x="213.625" y="23.5" width="23.6875" height="23.5" fill="#ACDD92"/>
<rect x="237.312" width="23.6875" height="23.5" fill="#ACDD92"/>
<rect x="237.312" y="23.5" width="23.6875" height="23.5" fill="#0D0039"/>
<rect x="71.5" y="46.9999" width="23.6875" height="23.5" fill="#0D0039"/>
<rect x="71.5" y="70.4999" width="23.6875" height="23.5" fill="#ACDD92"/>
<rect x="95.1875" y="46.9999" width="23.6875" height="23.5" fill="#ACDD92"/>
<rect x="95.1875" y="70.4999" width="23.6875" height="23.5" fill="#0D0039"/>
<rect x="118.875" y="46.9999" width="23.6875" height="23.5" fill="#0D0039"/>
<rect x="118.875" y="70.4999" width="23.6875" height="23.5" fill="#ACDD92"/>
<rect x="142.562" y="46.9999" width="23.6875" height="23.5" fill="#ACDD92"/>
<rect x="142.562" y="70.4999" width="23.6875" height="23.5" fill="#0D0039"/>
<rect x="166.25" y="46.9999" width="23.6875" height="23.5" fill="#0D0039"/>
<rect x="166.25" y="70.4999" width="23.6875" height="23.5" fill="#ACDD92"/>
<rect x="189.938" y="46.9999" width="23.6875" height="23.5" fill="#ACDD92"/>
<rect x="189.938" y="70.4999" width="23.6875" height="23.5" fill="#0D0039"/>
<rect x="213.625" y="46.9999" width="23.6875" height="23.5" fill="#0D0039"/>
<rect x="213.625" y="70.4999" width="23.6875" height="23.5" fill="#ACDD92"/>
<rect x="237.312" y="46.9999" width="23.6875" height="23.5" fill="#ACDD92"/>
<rect x="237.312" y="70.4999" width="23.6875" height="23.5" fill="#0D0039"/>
<rect x="261" width="23.6875" height="23.5" fill="#0D0039"/>
<rect x="261" y="23.5" width="23.6875" height="23.5" fill="#ACDD92"/>
<rect x="284.688" width="23.6875" height="23.5" fill="#ACDD92"/>
<rect x="284.688" y="23.5" width="23.6875" height="23.5" fill="#0D0039"/>
<rect x="308.375" width="23.6875" height="23.5" fill="#0D0039"/>
<rect x="308.375" y="23.5" width="23.6875" height="23.5" fill="#ACDD92"/>
<rect x="332.062" width="23.6875" height="23.5" fill="#ACDD92"/>
<rect x="332.062" y="23.5" width="23.6875" height="23.5" fill="#0D0039"/>
<rect x="355.75" width="23.6875" height="23.5" fill="#0D0039"/>
<rect x="355.75" y="23.5" width="23.6875" height="23.5" fill="#ACDD92"/>
<rect x="379.438" width="23.6875" height="23.5" fill="#ACDD92"/>
<rect x="379.438" y="23.5" width="23.6875" height="23.5" fill="#0D0039"/>
<rect x="403.125" width="23.6875" height="23.5" fill="#0D0039"/>
<rect x="403.125" y="23.5" width="23.6875" height="23.5" fill="#ACDD92"/>
<rect x="426.812" width="23.6875" height="23.5" fill="#ACDD92"/>
<rect x="426.812" y="23.5" width="23.6875" height="23.5" fill="#0D0039"/>
<rect x="261" y="46.9999" width="23.6875" height="23.5" fill="#0D0039"/>
<rect x="261" y="70.4999" width="23.6875" height="23.5" fill="#ACDD92"/>
<rect x="284.688" y="46.9999" width="23.6875" height="23.5" fill="#ACDD92"/>
<rect x="284.688" y="70.4999" width="23.6875" height="23.5" fill="#0D0039"/>
<rect x="308.375" y="46.9999" width="23.6875" height="23.5" fill="#0D0039"/>
<rect x="308.375" y="70.4999" width="23.6875" height="23.5" fill="#ACDD92"/>
<rect x="332.062" y="46.9999" width="23.6875" height="23.5" fill="#ACDD92"/>
<rect x="332.062" y="70.4999" width="23.6875" height="23.5" fill="#0D0039"/>
<rect x="355.75" y="46.9999" width="23.6875" height="23.5" fill="#0D0039"/>
<rect x="355.75" y="70.4999" width="23.6875" height="23.5" fill="#ACDD92"/>
<rect x="379.438" y="46.9999" width="23.6875" height="23.5" fill="#ACDD92"/>
<rect x="379.438" y="70.4999" width="23.6875" height="23.5" fill="#0D0039"/>
<rect x="403.125" y="46.9999" width="23.6875" height="23.5" fill="#0D0039"/>
<rect x="403.125" y="70.4999" width="23.6875" height="23.5" fill="#ACDD92"/>
<rect x="426.812" y="46.9999" width="23.6875" height="23.5" fill="#ACDD92"/>
<rect x="426.812" y="70.4999" width="23.6875" height="23.5" fill="#0D0039"/>
<rect x="450.5" width="23.6875" height="23.5" fill="#0D0039"/>
<rect x="450.5" y="23.5" width="23.6875" height="23.5" fill="#ACDD92"/>
<rect x="474.188" width="23.6875" height="23.5" fill="#ACDD92"/>
<rect x="474.188" y="23.5" width="23.6875" height="23.5" fill="#0D0039"/>
<rect x="497.875" width="23.6875" height="23.5" fill="#0D0039"/>
<rect x="497.875" y="23.5" width="23.6875" height="23.5" fill="#ACDD92"/>
<rect x="521.562" width="23.6875" height="23.5" fill="#ACDD92"/>
<rect x="521.562" y="23.5" width="23.6875" height="23.5" fill="#0D0039"/>
<rect x="545.25" width="23.6875" height="23.5" fill="#0D0039"/>
<rect x="545.25" y="23.5" width="23.6875" height="23.5" fill="#ACDD92"/>
<rect x="568.938" width="23.6875" height="23.5" fill="#ACDD92"/>
<rect x="568.938" y="23.5" width="23.6875" height="23.5" fill="#0D0039"/>
<rect x="592.625" width="23.6875" height="23.5" fill="#0D0039"/>
<rect x="592.625" y="23.5" width="23.6875" height="23.5" fill="#ACDD92"/>
<rect x="616.312" width="23.6875" height="23.5" fill="#ACDD92"/>
<rect x="616.312" y="23.5" width="23.6875" height="23.5" fill="#0D0039"/>
<rect x="450.5" y="46.9999" width="23.6875" height="23.5" fill="#0D0039"/>
<rect x="450.5" y="70.4999" width="23.6875" height="23.5" fill="#ACDD92"/>
<rect x="474.188" y="46.9999" width="23.6875" height="23.5" fill="#ACDD92"/>
<rect x="474.188" y="70.4999" width="23.6875" height="23.5" fill="#0D0039"/>
<rect x="497.875" y="46.9999" width="23.6875" height="23.5" fill="#0D0039"/>
<rect x="497.875" y="70.4999" width="23.6875" height="23.5" fill="#ACDD92"/>
<rect x="521.562" y="46.9999" width="23.6875" height="23.5" fill="#ACDD92"/>
<rect x="521.562" y="70.4999" width="23.6875" height="23.5" fill="#0D0039"/>
<rect x="545.25" y="46.9999" width="23.6875" height="23.5" fill="#0D0039"/>
<rect x="545.25" y="70.4999" width="23.6875" height="23.5" fill="#ACDD92"/>
<rect x="568.938" y="46.9999" width="23.6875" height="23.5" fill="#ACDD92"/>
<rect x="568.938" y="70.4999" width="23.6875" height="23.5" fill="#0D0039"/>
<rect x="592.625" y="46.9999" width="23.6875" height="23.5" fill="#0D0039"/>
<rect x="592.625" y="70.4999" width="23.6875" height="23.5" fill="#ACDD92"/>
<rect x="616.312" y="46.9999" width="23.6875" height="23.5" fill="#ACDD92"/>
<rect x="616.312" y="70.4999" width="23.6875" height="23.5" fill="#0D0039"/>
<rect x="640" width="23.6875" height="23.5" fill="#0D0039"/>
<rect x="640" y="23.5" width="23.6875" height="23.5" fill="#ACDD92"/>
<rect x="663.688" width="23.6875" height="23.5" fill="#ACDD92"/>
<rect x="663.688" y="23.5" width="23.6875" height="23.5" fill="#0D0039"/>
<rect x="687.375" width="23.6875" height="23.5" fill="#0D0039"/>
<rect x="687.375" y="23.5" width="23.6875" height="23.5" fill="#ACDD92"/>
<rect x="711.062" width="23.6875" height="23.5" fill="#ACDD92"/>
<rect x="711.062" y="23.5" width="23.6875" height="23.5" fill="#0D0039"/>
<rect x="734.75" width="23.6875" height="23.5" fill="#0D0039"/>
<rect x="734.75" y="23.5" width="23.6875" height="23.5" fill="#ACDD92"/>
<rect x="758.438" width="23.6875" height="23.5" fill="#ACDD92"/>
<rect x="758.438" y="23.5" width="23.6875" height="23.5" fill="#0D0039"/>
<rect x="782.125" width="23.6875" height="23.5" fill="#0D0039"/>
<rect x="782.125" y="23.5" width="23.6875" height="23.5" fill="#ACDD92"/>
<rect x="805.812" width="23.6875" height="23.5" fill="#ACDD92"/>
<rect x="805.812" y="23.5" width="23.6875" height="23.5" fill="#0D0039"/>
<rect x="640" y="46.9999" width="23.6875" height="23.5" fill="#0D0039"/>
<rect x="640" y="70.4999" width="23.6875" height="23.5" fill="#ACDD92"/>
<rect x="663.688" y="46.9999" width="23.6875" height="23.5" fill="#ACDD92"/>
<rect x="663.688" y="70.4999" width="23.6875" height="23.5" fill="#0D0039"/>
<rect x="687.375" y="46.9999" width="23.6875" height="23.5" fill="#0D0039"/>
<rect x="687.375" y="70.4999" width="23.6875" height="23.5" fill="#ACDD92"/>
<rect x="711.062" y="46.9999" width="23.6875" height="23.5" fill="#ACDD92"/>
<rect x="711.062" y="70.4999" width="23.6875" height="23.5" fill="#0D0039"/>
<rect x="734.75" y="46.9999" width="23.6875" height="23.5" fill="#0D0039"/>
<rect x="734.75" y="70.4999" width="23.6875" height="23.5" fill="#ACDD92"/>
<rect x="758.438" y="46.9999" width="23.6875" height="23.5" fill="#ACDD92"/>
<rect x="758.438" y="70.4999" width="23.6875" height="23.5" fill="#0D0039"/>
<rect x="782.125" y="46.9999" width="23.6875" height="23.5" fill="#0D0039"/>
<rect x="782.125" y="70.4999" width="23.6875" height="23.5" fill="#ACDD92"/>
<rect x="805.812" y="46.9999" width="23.6875" height="23.5" fill="#ACDD92"/>
<rect x="805.812" y="70.4999" width="23.6875" height="23.5" fill="#0D0039"/>
<rect x="829.5" width="23.6875" height="23.5" fill="#0D0039"/>
<rect x="829.5" y="23.5" width="23.6875" height="23.5" fill="#ACDD92"/>
<rect x="853.188" width="23.6875" height="23.5" fill="#ACDD92"/>
<rect x="853.188" y="23.5" width="23.6875" height="23.5" fill="#0D0039"/>
<rect x="876.875" width="23.6875" height="23.5" fill="#0D0039"/>
<rect x="876.875" y="23.5" width="23.6875" height="23.5" fill="#ACDD92"/>
<rect x="900.562" width="23.6875" height="23.5" fill="#ACDD92"/>
<rect x="900.562" y="23.5" width="23.6875" height="23.5" fill="#0D0039"/>
<rect x="924.25" width="23.6875" height="23.5" fill="#0D0039"/>
<rect x="924.25" y="23.5" width="23.6875" height="23.5" fill="#ACDD92"/>
<rect x="947.938" width="23.6875" height="23.5" fill="#ACDD92"/>
<rect x="947.938" y="23.5" width="23.6875" height="23.5" fill="#0D0039"/>
<rect x="971.625" width="23.6875" height="23.5" fill="#0D0039"/>
<rect x="971.625" y="23.5" width="23.6875" height="23.5" fill="#ACDD92"/>
<rect x="995.312" width="23.6875" height="23.5" fill="#ACDD92"/>
<rect x="995.312" y="23.5" width="23.6875" height="23.5" fill="#0D0039"/>
<rect x="829.5" y="46.9999" width="23.6875" height="23.5" fill="#0D0039"/>
<rect x="829.5" y="70.4999" width="23.6875" height="23.5" fill="#ACDD92"/>
<rect x="853.188" y="46.9999" width="23.6875" height="23.5" fill="#ACDD92"/>
<rect x="853.188" y="70.4999" width="23.6875" height="23.5" fill="#0D0039"/>
<rect x="876.875" y="46.9999" width="23.6875" height="23.5" fill="#0D0039"/>
<rect x="876.875" y="70.4999" width="23.6875" height="23.5" fill="#ACDD92"/>
<rect x="900.562" y="46.9999" width="23.6875" height="23.5" fill="#ACDD92"/>
<rect x="900.562" y="70.4999" width="23.6875" height="23.5" fill="#0D0039"/>
<rect x="924.25" y="46.9999" width="23.6875" height="23.5" fill="#0D0039"/>
<rect x="924.25" y="70.4999" width="23.6875" height="23.5" fill="#ACDD92"/>
<rect x="947.938" y="46.9999" width="23.6875" height="23.5" fill="#ACDD92"/>
<rect x="947.938" y="70.4999" width="23.6875" height="23.5" fill="#0D0039"/>
<rect x="971.625" y="46.9999" width="23.6875" height="23.5" fill="#0D0039"/>
<rect x="971.625" y="70.4999" width="23.6875" height="23.5" fill="#ACDD92"/>
<rect x="995.312" y="46.9999" width="23.6875" height="23.5" fill="#ACDD92"/>
<rect x="995.312" y="70.4999" width="23.6875" height="23.5" fill="#0D0039"/>
<rect x="1019" width="23.6875" height="23.5" fill="#0D0039"/>
<rect x="1019" y="23.5" width="23.6875" height="23.5" fill="#ACDD92"/>
<rect x="1042.69" width="23.6875" height="23.5" fill="#ACDD92"/>
<rect x="1042.69" y="23.5" width="23.6875" height="23.5" fill="#0D0039"/>
<rect x="1066.38" width="23.6875" height="23.5" fill="#0D0039"/>
<rect x="1066.38" y="23.5" width="23.6875" height="23.5" fill="#ACDD92"/>
<rect x="1090.06" width="23.6875" height="23.5" fill="#ACDD92"/>
<rect x="1090.06" y="23.5" width="23.6875" height="23.5" fill="#0D0039"/>
<rect x="1113.75" width="23.6875" height="23.5" fill="#0D0039"/>
<rect x="1113.75" y="23.5" width="23.6875" height="23.5" fill="#ACDD92"/>
<rect x="1137.44" width="23.6875" height="23.5" fill="#ACDD92"/>
<rect x="1137.44" y="23.5" width="23.6875" height="23.5" fill="#0D0039"/>
<rect x="1161.12" width="23.6875" height="23.5" fill="#0D0039"/>
<rect x="1161.12" y="23.5" width="23.6875" height="23.5" fill="#ACDD92"/>
<rect x="1184.81" width="23.6875" height="23.5" fill="#ACDD92"/>
<rect x="1184.81" y="23.5" width="23.6875" height="23.5" fill="#0D0039"/>
<rect x="1019" y="46.9999" width="23.6875" height="23.5" fill="#0D0039"/>
<rect x="1019" y="70.4999" width="23.6875" height="23.5" fill="#ACDD92"/>
<rect x="1042.69" y="46.9999" width="23.6875" height="23.5" fill="#ACDD92"/>
<rect x="1042.69" y="70.4999" width="23.6875" height="23.5" fill="#0D0039"/>
<rect x="1066.38" y="46.9999" width="23.6875" height="23.5" fill="#0D0039"/>
<rect x="1066.38" y="70.4999" width="23.6875" height="23.5" fill="#ACDD92"/>
<rect x="1090.06" y="46.9999" width="23.6875" height="23.5" fill="#ACDD92"/>
<rect x="1090.06" y="70.4999" width="23.6875" height="23.5" fill="#0D0039"/>
<rect x="1113.75" y="46.9999" width="23.6875" height="23.5" fill="#0D0039"/>
<rect x="1113.75" y="70.4999" width="23.6875" height="23.5" fill="#ACDD92"/>
<rect x="1137.44" y="46.9999" width="23.6875" height="23.5" fill="#ACDD92"/>
<rect x="1137.44" y="70.4999" width="23.6875" height="23.5" fill="#0D0039"/>
<rect x="1161.12" y="46.9999" width="23.6875" height="23.5" fill="#0D0039"/>
<rect x="1161.12" y="70.4999" width="23.6875" height="23.5" fill="#ACDD92"/>
<rect x="1184.81" y="46.9999" width="23.6875" height="23.5" fill="#ACDD92"/>
<rect x="1184.81" y="70.4999" width="23.6875" height="23.5" fill="#0D0039"/>
<rect x="1208.5" width="23.6875" height="23.5" fill="#0D0039"/>
<rect x="1208.5" y="23.5" width="23.6875" height="23.5" fill="#ACDD92"/>
<rect x="1232.19" width="23.6875" height="23.5" fill="#ACDD92"/>
<rect x="1232.19" y="23.5" width="23.6875" height="23.5" fill="#0D0039"/>
<rect x="1255.88" width="23.6875" height="23.5" fill="#0D0039"/>
<rect x="1255.88" y="23.5" width="23.6875" height="23.5" fill="#ACDD92"/>
<rect x="1279.56" width="23.6875" height="23.5" fill="#ACDD92"/>
<rect x="1279.56" y="23.5" width="23.6875" height="23.5" fill="#0D0039"/>
<rect x="1208.5" y="46.9999" width="23.6875" height="23.5" fill="#0D0039"/>
<rect x="1208.5" y="70.4999" width="23.6875" height="23.5" fill="#ACDD92"/>
<rect x="1232.19" y="46.9999" width="23.6875" height="23.5" fill="#ACDD92"/>
<rect x="1232.19" y="70.4999" width="23.6875" height="23.5" fill="#0D0039"/>
<rect x="1255.88" y="46.9999" width="23.6875" height="23.5" fill="#0D0039"/>
<rect x="1255.88" y="70.4999" width="23.6875" height="23.5" fill="#ACDD92"/>
<rect x="1279.56" y="46.9999" width="23.6875" height="23.5" fill="#ACDD92"/>
<rect x="1279.56" y="70.4999" width="23.6875" height="23.5" fill="#0D0039"/>
</svg>
